<svg xmlns="http://www.w3.org/2000/svg" viewBox="0 0 760 600" font-family="Segoe Print, Comic Sans MS, Bradley Hand, Chalkboard SE, cursive"><rect width="760" height="600" fill="#fbfaf7"/><g><path d="M104,70 L656,70 Q690,70 690,104 L690,506 Q690,540 656,540 L104,540 Q70,540 70,506 L70,104 Q70,70 104,70 Z" fill="#f5f2ea"/><path d="M103.2,68.5 L288.7,68.1 L472.2,69.4 L654.1,70.0M688.0,103.7 L688.1,236.2 L689.7,373.4 L688.3,504.8M656.6,542.0 L472.3,539.5 L290.1,538.0 L105.6,539.1M68.4,504.3 L69.2,373.4 L68.6,238.4 L70.6,103.4" fill="none" stroke="#8a8577" stroke-width="2.6"/><path d="M104.2,68.1 L286.1,68.7 L472.8,69.7 L655.2,70.4M689.8,103.1 L691.3,238.9 L688.9,372.3 L690.1,507.7M657.0,539.1 L474.1,538.3 L287.6,541.1 L102.5,540.0M68.0,506.7 L71.2,372.3 L71.7,237.2 L70.9,104.4" fill="none" stroke="#8a8577" stroke-width="2.6"/><path d="M54,108 L60,108 Q74,108 74,122 L74,172 Q74,186 60,186 L54,186 Q40,186 40,172 L40,122 Q40,108 54,108 Z" fill="#2f3540"/><path d="M54.3,107.9 L57.1,109.4 L57.9,108.5 L58.6,108.6M74.5,123.6 L75.0,138.0 L73.6,155.9 L72.5,171.9M58.9,184.8 L56.6,186.9 L54.8,185.2 L53.7,187.2M38.7,171.8 L40.2,156.6 L41.0,139.8 L39.3,121.7" fill="none" stroke="#1b1f27" stroke-width="2"/><path d="M53.5,109.2 L57.5,106.9 L57.0,107.1 L59.1,108.0M74.3,121.2 L72.4,138.4 L73.6,155.5 L75.4,172.6M60.0,186.4 L58.6,184.6 L57.3,186.9 L55.2,187.0M39.7,171.7 L38.7,155.8 L38.6,137.3 L39.1,120.9" fill="none" stroke="#1b1f27" stroke-width="2"/><path d="M42.7,122.9 L51.5,123.0 L61.0,123.4 L70.2,124.2" stroke="#565f6e" stroke-width="1.4" fill="none"/><path d="M43.2,138.6 L51.9,139.0 L61.4,138.6 L71.6,140.0" stroke="#565f6e" stroke-width="1.4" fill="none"/><path d="M42.9,154.8 L51.7,154.2 L61.4,154.4 L71.5,154.3" stroke="#565f6e" stroke-width="1.4" fill="none"/><path d="M42.2,171.1 L52.4,169.8 L61.7,169.6 L71.0,171.2" stroke="#565f6e" stroke-width="1.4" fill="none"/><path d="M700,108 L706,108 Q720,108 720,122 L720,172 Q720,186 706,186 L700,186 Q686,186 686,172 L686,122 Q686,108 700,108 Z" fill="#2f3540"/><path d="M701.2,108.6 L701.2,107.6 L702.9,108.9 L706.1,108.9M719.5,121.1 L721.0,140.2 L721.1,156.3 L721.0,172.8M705.1,186.1 L703.5,184.5 L700.5,185.3 L699.2,186.6M687.5,171.8 L687.4,156.9 L687.5,138.2 L685.1,121.1" fill="none" stroke="#1b1f27" stroke-width="2"/><path d="M699.0,107.1 L702.4,109.3 L705.1,107.9 L706.5,109.0M718.7,122.5 L721.3,139.6 L720.8,155.3 L719.0,172.9M705.5,187.0 L705.5,185.7 L701.7,187.4 L700.7,184.9M684.8,170.9 L687.3,156.3 L684.9,139.7 L687.5,122.5" fill="none" stroke="#1b1f27" stroke-width="2"/><path d="M688.8,123.7 L697.7,122.8 L708.4,123.8 L717.0,124.3" stroke="#565f6e" stroke-width="1.4" fill="none"/><path d="M688.9,139.8 L698.9,138.7 L707.3,138.9 L716.6,139.3" stroke="#565f6e" stroke-width="1.4" fill="none"/><path d="M688.6,154.7 L697.7,155.5 L707.4,154.7 L717.1,155.4" stroke="#565f6e" stroke-width="1.4" fill="none"/><path d="M688.9,171.1 L698.3,170.5 L707.7,169.6 L716.9,169.9" stroke="#565f6e" stroke-width="1.4" fill="none"/><path d="M54,414 L60,414 Q74,414 74,428 L74,478 Q74,492 60,492 L54,492 Q40,492 40,478 L40,428 Q40,414 54,414 Z" fill="#2f3540"/><path d="M52.4,415.0 L55.0,413.9 L58.7,414.2 L59.4,414.1M74.2,428.9 L72.7,444.9 L73.2,460.6 L74.9,478.0M60.2,492.8 L59.3,491.8 L56.4,492.0 L54.0,492.6M39.8,478.1 L39.9,462.7 L40.6,445.9 L41.4,427.2" fill="none" stroke="#1b1f27" stroke-width="2"/><path d="M54.2,415.4 L57.1,412.8 L56.8,413.8 L58.6,413.2M72.6,428.5 L74.9,445.9 L72.9,462.0 L74.5,476.9M61.2,493.5 L57.1,493.4 L55.7,492.0 L55.6,493.1M38.9,477.8 L40.0,460.8 L39.0,444.1 L40.7,426.5" fill="none" stroke="#1b1f27" stroke-width="2"/><path d="M43.1,429.5 L51.6,429.3 L61.9,429.6 L70.3,430.4" stroke="#565f6e" stroke-width="1.4" fill="none"/><path d="M43.5,446.0 L51.7,444.8 L60.9,445.6 L70.6,444.6" stroke="#565f6e" stroke-width="1.4" fill="none"/><path d="M42.9,461.5 L52.8,460.4 L61.1,461.5 L71.1,461.1" stroke="#565f6e" stroke-width="1.4" fill="none"/><path d="M42.3,475.7 L52.6,476.3 L61.0,477.1 L71.2,476.9" stroke="#565f6e" stroke-width="1.4" fill="none"/><path d="M700,414 L706,414 Q720,414 720,428 L720,478 Q720,492 706,492 L700,492 Q686,492 686,478 L686,428 Q686,414 700,414 Z" fill="#2f3540"/><path d="M698.7,415.1 L700.6,415.2 L703.9,413.5 L706.2,415.4M719.3,426.8 L720.1,443.8 L718.8,460.2 L718.6,477.0M705.4,491.4 L704.8,491.3 L702.0,491.0 L699.5,490.5M685.2,476.4 L686.7,461.5 L685.0,444.6 L687.4,426.7" fill="none" stroke="#1b1f27" stroke-width="2"/><path d="M701.0,413.8 L702.0,415.1 L703.7,414.0 L706.6,415.5M719.5,429.1 L720.7,445.1 L719.7,460.8 L718.6,476.8M704.6,492.8 L703.2,490.9 L700.7,493.1 L701.2,492.5M685.3,477.2 L685.3,461.2 L684.9,444.5 L685.2,429.5" fill="none" stroke="#1b1f27" stroke-width="2"/><path d="M689.8,429.7 L697.9,430.3 L707.4,429.4 L716.2,429.4" stroke="#565f6e" stroke-width="1.4" fill="none"/><path d="M689.0,445.2 L697.9,445.2 L706.9,444.8 L716.3,445.0" stroke="#565f6e" stroke-width="1.4" fill="none"/><path d="M688.3,460.0 L698.0,460.4 L707.8,460.8 L717.4,461.1" stroke="#565f6e" stroke-width="1.4" fill="none"/><path d="M689.3,477.0 L698.2,476.1 L708.4,475.8 L717.4,476.6" stroke="#565f6e" stroke-width="1.4" fill="none"/><text x="380" y="52" font-family="Segoe Print, Comic Sans MS, Bradley Hand, Chalkboard SE, cursive" font-size="17" font-weight="bold" fill="#5a5648" text-anchor="middle">▲ FRONT</text><text x="380" y="580" font-family="Segoe Print, Comic Sans MS, Bradley Hand, Chalkboard SE, cursive" font-size="17" font-weight="bold" fill="#5a5648" text-anchor="middle">REAR ▼</text><g transform="rotate(0 380 296)"><path d="M297,250 L463,250 Q475,250 475,262 L475,330 Q475,342 463,342 L297,342 Q285,342 285,330 L285,262 Q285,250 297,250 Z" fill="#dff1e4" opacity="0.92"/><path d="M295.5,251.1 L353.6,250.4 L408.4,251.0 L461.8,250.1M475.0,263.1 L476.0,285.7 L475.3,308.6 L475.6,330.6M462.1,340.5 L406.5,341.6 L351.1,343.1 L297.2,342.4M285.4,330.6 L285.0,305.7 L286.0,285.5 L285.0,262.1" fill="none" stroke="#2f6b45" stroke-width="2.4" stroke-linecap="round"/><path d="M297.5,248.6 L353.1,249.2 L406.3,249.2 L463.7,249.1M475.8,263.5 L475.0,284.3 L474.9,307.9 L475.9,330.4M463.5,340.6 L406.5,341.2 L353.1,341.4 L297.2,340.4M283.6,329.3 L285.6,307.9 L285.6,284.0 L285.1,261.9" fill="none" stroke="#2f6b45" stroke-width="2.4" stroke-linecap="round"/><text x="380" y="283" font-family="Segoe Print, Comic Sans MS, Bradley Hand, Chalkboard SE, cursive" font-size="15" font-weight="bold" fill="#2f6b45" text-anchor="middle">ATmega328P</text><text x="380" y="301" font-family="Segoe Print, Comic Sans MS, Bradley Hand, Chalkboard SE, cursive" font-size="13" font-weight="normal" fill="#2f6b45" text-anchor="middle">16 MHz · 2 KB RAM</text><text x="380" y="319" font-family="Segoe Print, Comic Sans MS, Bradley Hand, Chalkboard SE, cursive" font-size="13" font-weight="normal" fill="#2f6b45" text-anchor="middle">read · obey · report</text></g><g transform="rotate(0 225 121)"><path d="M162,92 L288,92 Q300,92 300,104 L300,138 Q300,150 288,150 L162,150 Q150,150 150,138 L150,104 Q150,92 162,92 Z" fill="#ffe6cc" opacity="0.92"/><path d="M161.9,90.8 L205.3,91.0 L247.5,93.4 L286.5,91.9M301.0,105.5 L299.8,114.6 L299.1,128.1 L299.1,138.3M286.9,150.1 L247.4,148.8 L205.0,150.0 L163.2,150.7M149.1,139.3 L150.0,125.1 L148.4,115.3 L149.8,103.4" fill="none" stroke="#9c5f1e" stroke-width="2.4" stroke-linecap="round"/><path d="M160.9,91.5 L203.4,93.1 L244.4,92.8 L289.1,90.8M301.4,104.7 L301.3,114.7 L299.6,126.3 L301.6,138.3M287.6,149.8 L245.3,148.6 L202.7,151.1 L161.3,151.4M149.2,137.3 L150.0,125.7 L149.6,116.8 L151.2,105.0" fill="none" stroke="#9c5f1e" stroke-width="2.4" stroke-linecap="round"/><text x="225" y="118" font-family="Segoe Print, Comic Sans MS, Bradley Hand, Chalkboard SE, cursive" font-size="13" font-weight="bold" fill="#9c5f1e" text-anchor="middle">Servo + HC-SR04</text><text x="225" y="134" font-family="Segoe Print, Comic Sans MS, Bradley Hand, Chalkboard SE, cursive" font-size="11" font-weight="normal" fill="#9c5f1e" text-anchor="middle">pins 10 · 13/12</text></g><g transform="rotate(0 535 121)"><path d="M472,92 L598,92 Q610,92 610,104 L610,138 Q610,150 598,150 L472,150 Q460,150 460,138 L460,104 Q460,92 472,92 Z" fill="#dff1e4" opacity="0.92"/><path d="M472.4,93.3 L515.4,92.2 L556.7,90.6 L598.7,91.8M610.8,104.5 L609.3,113.9 L611.4,125.5 L609.9,137.5M597.4,150.8 L557.5,149.2 L514.5,149.4 L472.2,149.7M458.9,136.9 L459.1,128.0 L460.0,114.4 L461.3,105.6" fill="none" stroke="#2f6b45" stroke-width="2.4" stroke-linecap="round"/><path d="M471.8,90.8 L513.0,90.7 L555.5,90.7 L597.2,91.2M610.2,105.2 L610.8,115.1 L609.7,126.7 L609.6,137.5M596.6,149.3 L557.5,148.8 L514.0,150.4 L473.2,149.1M459.3,137.2 L459.7,126.5 L461.5,116.4 L461.2,102.5" fill="none" stroke="#2f6b45" stroke-width="2.4" stroke-linecap="round"/><text x="535" y="118" font-family="Segoe Print, Comic Sans MS, Bradley Hand, Chalkboard SE, cursive" font-size="13" font-weight="bold" fill="#2f6b45" text-anchor="middle">ESP32 + camera</text><text x="535" y="134" font-family="Segoe Print, Comic Sans MS, Bradley Hand, Chalkboard SE, cursive" font-size="11" font-weight="normal" fill="#2f6b45" text-anchor="middle">the decider</text></g><g transform="rotate(0 380 121)"><path d="M332,96 L428,96 Q440,96 440,108 L440,134 Q440,146 428,146 L332,146 Q320,146 320,134 L320,108 Q320,96 332,96 Z" fill="#dbe9ff" opacity="0.92"/><path d="M330.5,96.7 L365.3,95.9 L396.3,94.4 L427.7,97.4M441.0,109.1 L441.5,115.9 L438.7,124.2 L440.1,134.6M429.4,146.7 L396.5,146.8 L363.9,146.2 L330.5,146.9M319.1,135.3 L320.5,124.7 L318.8,115.9 L320.4,108.6" fill="none" stroke="#2f4d86" stroke-width="2.4" stroke-linecap="round"/><path d="M330.8,94.6 L364.1,96.3 L395.6,95.1 L428.3,94.4M439.4,107.9 L441.5,117.1 L441.2,125.3 L439.2,133.2M429.5,146.7 L395.4,144.5 L364.0,146.6 L331.7,145.2M320.5,135.4 L319.1,123.8 L319.5,116.4 L320.6,107.0" fill="none" stroke="#2f4d86" stroke-width="2.4" stroke-linecap="round"/><text x="380" y="118" font-family="Segoe Print, Comic Sans MS, Bradley Hand, Chalkboard SE, cursive" font-size="13" font-weight="bold" fill="#2f4d86" text-anchor="middle">IR receiver</text><text x="380" y="134" font-family="Segoe Print, Comic Sans MS, Bradley Hand, Chalkboard SE, cursive" font-size="11" font-weight="normal" fill="#2f4d86" text-anchor="middle">pin 9</text></g><g transform="rotate(0 380 201)"><path d="M267,178 L493,178 Q505,178 505,190 L505,212 Q505,224 493,224 L267,224 Q255,224 255,212 L255,190 Q255,178 267,178 Z" fill="#dbe9ff" opacity="0.92"/><path d="M268.0,178.8 L342.3,177.1 L419.2,177.4 L494.0,177.1M504.1,190.8 L504.3,198.8 L505.0,203.7 L504.1,211.7M493.5,225.4 L416.5,223.7 L341.4,225.5 L265.9,222.6M253.6,211.7 L256.3,205.9 L255.7,198.9 L256.4,189.5" fill="none" stroke="#2f4d86" stroke-width="2.4" stroke-linecap="round"/><path d="M266.0,179.4 L343.1,176.5 L418.2,177.6 L492.6,177.5M503.9,188.4 L504.3,196.9 L506.5,203.5 L506.5,211.1M492.5,225.0 L418.7,223.8 L340.9,223.9 L266.6,225.3M254.0,211.6 L256.3,203.2 L254.7,198.3 L255.9,188.5" fill="none" stroke="#2f4d86" stroke-width="2.4" stroke-linecap="round"/><text x="380" y="206" font-family="Segoe Print, Comic Sans MS, Bradley Hand, Chalkboard SE, cursive" font-size="13" font-weight="bold" fill="#2f4d86" text-anchor="middle">3x line sensor · A0 A1 A2</text></g><g transform="rotate(0 580 280)"><path d="M517,250 L643,250 Q655,250 655,262 L655,298 Q655,310 643,310 L517,310 Q505,310 505,298 L505,262 Q505,250 517,250 Z" fill="#dbe9ff" opacity="0.92"/><path d="M515.5,248.6 L560.3,249.2 L601.8,251.3 L642.5,249.3M656.5,262.4 L654.2,274.7 L654.4,285.3 L653.4,298.8M644.3,310.4 L602.4,308.5 L558.1,309.9 L518.5,311.5M504.6,297.2 L504.8,286.0 L506.4,273.0 L506.0,262.8" fill="none" stroke="#2f4d86" stroke-width="2.4" stroke-linecap="round"/><path d="M518.0,250.9 L559.3,249.4 L600.4,249.6 L643.9,248.7M654.0,262.8 L654.2,272.6 L653.5,286.2 L654.4,299.5M644.2,311.6 L600.2,308.7 L557.7,310.0 L517.7,309.8M504.1,297.7 L505.4,286.6 L505.8,275.1 L505.5,260.8" fill="none" stroke="#2f4d86" stroke-width="2.4" stroke-linecap="round"/><text x="580" y="277" font-family="Segoe Print, Comic Sans MS, Bradley Hand, Chalkboard SE, cursive" font-size="13" font-weight="bold" fill="#2f4d86" text-anchor="middle">MPU6050</text><text x="580" y="293" font-family="Segoe Print, Comic Sans MS, Bradley Hand, Chalkboard SE, cursive" font-size="11" font-weight="normal" fill="#2f4d86" text-anchor="middle">gyro+accel · I2C</text></g><g transform="rotate(0 180 280)"><path d="M117,250 L243,250 Q255,250 255,262 L255,298 Q255,310 243,310 L117,310 Q105,310 105,298 L105,262 Q105,250 117,250 Z" fill="#ffe6cc" opacity="0.92"/><path d="M118.1,249.3 L159.2,249.6 L201.8,249.0 L242.2,249.2M253.9,263.2 L255.3,273.4 L254.7,287.6 L255.0,297.1M244.0,310.5 L202.6,308.7 L158.9,311.0 L118.1,311.3M103.5,297.3 L103.8,285.0 L106.5,274.3 L106.4,261.6" fill="none" stroke="#9c5f1e" stroke-width="2.4" stroke-linecap="round"/><path d="M118.2,249.8 L158.2,250.9 L202.4,248.7 L243.3,250.4M254.1,261.6 L253.9,273.1 L254.2,286.3 L255.5,297.1M241.4,309.4 L201.6,309.0 L158.4,309.1 L117.9,310.2M103.6,296.7 L104.7,286.2 L105.4,272.7 L103.9,262.6" fill="none" stroke="#9c5f1e" stroke-width="2.4" stroke-linecap="round"/><text x="180" y="277" font-family="Segoe Print, Comic Sans MS, Bradley Hand, Chalkboard SE, cursive" font-size="13" font-weight="bold" fill="#9c5f1e" text-anchor="middle">WS2812 LED</text><text x="180" y="293" font-family="Segoe Print, Comic Sans MS, Bradley Hand, Chalkboard SE, cursive" font-size="11" font-weight="normal" fill="#9c5f1e" text-anchor="middle">pin 4</text></g><g transform="rotate(0 215 405)"><path d="M132,372 L298,372 Q310,372 310,384 L310,426 Q310,438 298,438 L132,438 Q120,438 120,426 L120,384 Q120,372 132,372 Z" fill="#ffe6cc" opacity="0.92"/><path d="M131.7,371.3 L186.7,373.5 L242.1,372.2 L297.5,371.7M311.2,385.6 L309.6,397.0 L310.7,411.1 L308.4,427.3M297.8,439.0 L242.4,439.2 L187.2,436.9 L130.4,438.2M120.5,427.3 L118.7,412.4 L119.6,398.0 L118.9,383.3" fill="none" stroke="#9c5f1e" stroke-width="2.4" stroke-linecap="round"/><path d="M132.1,373.4 L186.1,372.0 L243.6,373.5 L297.0,370.8M311.4,385.5 L309.9,396.6 L311.4,411.6 L311.3,426.4M299.0,436.9 L243.6,437.1 L187.0,439.1 L133.1,437.0M119.1,425.7 L120.1,411.6 L118.8,397.2 L120.7,385.3" fill="none" stroke="#9c5f1e" stroke-width="2.4" stroke-linecap="round"/><text x="215" y="402" font-family="Segoe Print, Comic Sans MS, Bradley Hand, Chalkboard SE, cursive" font-size="13" font-weight="bold" fill="#9c5f1e" text-anchor="middle">2x DC motor + TB6612</text><text x="215" y="418" font-family="Segoe Print, Comic Sans MS, Bradley Hand, Chalkboard SE, cursive" font-size="11" font-weight="normal" fill="#9c5f1e" text-anchor="middle">pins 3 5 6 7 8</text></g><g transform="rotate(0 455 403)"><path d="M392,372 L518,372 Q530,372 530,384 L530,422 Q530,434 518,434 L392,434 Q380,434 380,422 L380,384 Q380,372 392,372 Z" fill="#dbe9ff" opacity="0.92"/><path d="M390.5,372.2 L434.8,370.5 L477.1,370.8 L518.3,372.2M530.4,383.4 L529.7,396.9 L529.8,409.8 L529.8,421.8M516.5,434.4 L476.0,433.2 L434.8,434.9 L391.9,433.0M379.9,420.7 L378.8,409.1 L378.7,396.5 L380.0,382.5" fill="none" stroke="#2f4d86" stroke-width="2.4" stroke-linecap="round"/><path d="M392.4,370.7 L434.7,372.9 L476.0,370.6 L518.0,371.6M531.4,382.8 L531.1,398.3 L530.7,410.3 L529.0,423.5M518.0,435.5 L477.3,432.9 L434.9,435.4 L390.6,433.5M380.8,420.9 L381.3,408.6 L381.0,395.5 L380.0,385.3" fill="none" stroke="#2f4d86" stroke-width="2.4" stroke-linecap="round"/><text x="455" y="400" font-family="Segoe Print, Comic Sans MS, Bradley Hand, Chalkboard SE, cursive" font-size="13" font-weight="bold" fill="#2f4d86" text-anchor="middle">Battery sense</text><text x="455" y="416" font-family="Segoe Print, Comic Sans MS, Bradley Hand, Chalkboard SE, cursive" font-size="11" font-weight="normal" fill="#2f4d86" text-anchor="middle">pin A3</text></g><g transform="rotate(0 603 403)"><path d="M560,372 L646,372 Q658,372 658,384 L658,422 Q658,434 646,434 L560,434 Q548,434 548,422 L548,384 Q548,372 560,372 Z" fill="#dbe9ff" opacity="0.92"/><path d="M559.1,371.2 L588.7,371.4 L615.9,371.0 L644.9,373.4M658.6,385.3 L656.9,397.6 L656.8,409.4 L658.4,421.6M647.2,434.2 L617.6,435.2 L587.4,435.6 L560.4,433.7M549.0,421.2 L549.6,409.6 L547.6,397.5 L547.8,383.0" fill="none" stroke="#2f4d86" stroke-width="2.4" stroke-linecap="round"/><path d="M560.8,370.6 L589.7,371.2 L617.8,373.5 L646.3,372.5M657.4,382.4 L656.5,395.5 L658.4,409.1 L658.0,423.3M644.8,433.1 L617.8,432.5 L587.1,433.5 L558.7,433.5M547.1,422.3 L548.3,408.4 L548.4,396.6 L546.8,385.4" fill="none" stroke="#2f4d86" stroke-width="2.4" stroke-linecap="round"/><text x="603" y="400" font-family="Segoe Print, Comic Sans MS, Bradley Hand, Chalkboard SE, cursive" font-size="13" font-weight="bold" fill="#2f4d86" text-anchor="middle">Button</text><text x="603" y="416" font-family="Segoe Print, Comic Sans MS, Bradley Hand, Chalkboard SE, cursive" font-size="11" font-weight="normal" fill="#2f4d86" text-anchor="middle">pin 2</text></g><path d="M379.5,223.3 L379.2,232.9 L380.7,241.9 L379.8,249.5" stroke="#7a8699" stroke-width="1.8" fill="none" stroke-dasharray="1 0"/><path d="M376.5,241.7 L380,250 L383.5,241.7" stroke="#7a8699" stroke-width="1.8" fill="none" stroke-linecap="round"/><path d="M504.0,285.3 L495.1,287.0 L485.3,289.6 L475.9,292.5" stroke="#7a8699" stroke-width="1.8" fill="none" stroke-dasharray="1 0"/><path d="M482.3,286.7 L475,292 L483.9,293.5" stroke="#7a8699" stroke-width="1.8" fill="none" stroke-linecap="round"/><path d="M254.5,285.8 L264.1,287.4 L274.8,289.1 L284.1,292.6" stroke="#7a8699" stroke-width="1.8" fill="none" stroke-dasharray="1 0"/><path d="M276.1,293.5 L285,292 L277.7,286.7" stroke="#7a8699" stroke-width="1.8" fill="none" stroke-linecap="round"/><path d="M379.0,250.1 L380.9,240.6 L379.4,232.9 L380.0,224.3" stroke="#7a8699" stroke-width="1.8" fill="none" stroke-dasharray="1 0"/><path d="M383.5,232.3 L380,224 L376.5,232.3" stroke="#7a8699" stroke-width="1.8" fill="none" stroke-linecap="round"/><path d="M430.6,341.3 L433.0,351.6 L435.8,362.8 L440.6,372.4" stroke="#7a8699" stroke-width="1.8" fill="none" stroke-dasharray="1 0"/><path d="M434.1,365.2 L440,372 L440.7,363.0" stroke="#7a8699" stroke-width="1.8" fill="none" stroke-linecap="round"/></g></svg>